<svg width="48" height="48" viewBox="0 0 48 48" fill="none" xmlns="http://www.w3.org/2000/svg">
<circle cx="24" cy="24" r="23" fill="white" stroke="#6DBA3A" stroke-width="2"/>
<g clip-path="url(#clip0_119_1183)">
<path d="M23.9987 12.3334C19.4837 12.3334 15.832 15.985 15.832 20.5C15.832 26.625 23.9987 35.6667 23.9987 35.6667C23.9987 35.6667 32.1654 26.625 32.1654 20.5C32.1654 15.985 28.5137 12.3334 23.9987 12.3334ZM18.1654 20.5C18.1654 17.28 20.7787 14.6667 23.9987 14.6667C27.2187 14.6667 29.832 17.28 29.832 20.5C29.832 23.86 26.472 28.8884 23.9987 32.0267C21.572 28.9117 18.1654 23.825 18.1654 20.5Z" fill="#6DBA3A"/>
<path d="M23.9987 23.4167C25.6095 23.4167 26.9154 22.1109 26.9154 20.5C26.9154 18.8892 25.6095 17.5834 23.9987 17.5834C22.3879 17.5834 21.082 18.8892 21.082 20.5C21.082 22.1109 22.3879 23.4167 23.9987 23.4167Z" fill="#6DBA3A"/>
</g>
<defs>
<clipPath id="clip0_119_1183">
<rect width="28" height="28" fill="white" transform="translate(10 10)"/>
</clipPath>
</defs>
</svg>
