<svg width="18" height="20" viewBox="0 0 18 20" fill="none" xmlns="http://www.w3.org/2000/svg">
<path d="M17.4711 5.37C17.4711 5.37 17.4711 5.37 17.4711 5.29L17.4111 5.14C17.3902 5.10818 17.3668 5.07808 17.3411 5.05C17.3144 5.00767 17.2843 4.96754 17.2511 4.93L17.1611 4.86L17.0011 4.78L9.50112 0.150004C9.34219 0.0506709 9.15854 -0.0019989 8.97112 -0.0019989C8.7837 -0.0019989 8.60005 0.0506709 8.44112 0.150004L1.00112 4.78L0.911122 4.86L0.821121 4.93C0.787973 4.96754 0.757877 5.00767 0.731122 5.05C0.705413 5.07808 0.682005 5.10818 0.661122 5.14L0.601121 5.29C0.601121 5.29 0.601121 5.29 0.601121 5.37C0.591293 5.45639 0.591293 5.54362 0.601121 5.63V14.37C0.600781 14.5399 0.643758 14.7072 0.725993 14.8559C0.808228 15.0046 0.927009 15.1299 1.07112 15.22L8.57112 19.85C8.61728 19.8785 8.66803 19.8988 8.72112 19.91C8.72112 19.91 8.77112 19.91 8.80112 19.91C8.9703 19.9637 9.15194 19.9637 9.32112 19.91C9.32112 19.91 9.37112 19.91 9.40112 19.91C9.45421 19.8988 9.50496 19.8785 9.55112 19.85L17.0011 15.22C17.1452 15.1299 17.264 15.0046 17.3463 14.8559C17.4285 14.7072 17.4715 14.5399 17.4711 14.37V5.63C17.4809 5.54362 17.4809 5.45639 17.4711 5.37ZM8.00112 17.21L2.50112 13.81V7.43L8.00112 10.82V17.21ZM9.00112 9.09L3.40112 5.63L9.00112 2.18L14.6011 5.63L9.00112 9.09ZM15.5011 13.81L10.0011 17.21V10.82L15.5011 7.43V13.81Z" fill="#040A3B"/>
</svg>
